#define image_width  19
#define image_height 17
static unsigned char image_bits[] = {
 0x78,0xf0,0xf8,0xfc,0xf8,0xf9,0xfe,0xfd,0xfb,0xff,0xff,0xff,
 0xff,0xff,0xff,0xff,0xff,0xff,0xff,0xff,0xff,0xff,0xff,0xff,
 0xfe,0xff,0xfb,0xfc,0xff,0xf9,0xf8,0xff,0xf8,0xf0,0x7f,0xf8,
 0xe0,0x3f,0xf8,0xc0,0x1f,0xf8,0x80,0x0f,0xf8,0x00,0x07,0xf8,
 0x00,0x02,0xf8};
