#define image_width  19
#define image_height 17
static unsigned char image_bits[] = {
 0x80,0x0f,0xf8,0xe0,0x3f,0xf8,0xf8,0xff,0xf8,0xf8,0xf8,0xf8,
 0x3c,0xe0,0xf9,0x1c,0xc0,0xf9,0x1e,0xc0,0xfb,0x0e,0x80,0xfb,
 0x0e,0x80,0xfb,0x0e,0x80,0xfb,0x1e,0xc0,0xfb,0x1c,0xc0,0xf9,
 0x3c,0xe0,0xf9,0xf8,0xf8,0xf8,0xf8,0xff,0xf8,0xe0,0x3f,0xf8,
 0x80,0x0f,0xf8};
