#define image_width  19
#define image_height 17
static unsigned char image_bits[] = {
 0x00,0x00,0xf8,0xfc,0xff,0xf9,0xfc,0xff,0xf9,0xfc,0xff,0xf9,
 0x1c,0xc0,0xf9,0x1c,0xc0,0xf9,0x1c,0xc0,0xf9,0x1c,0xc0,0xf9,
 0x1c,0xc0,0xf9,0x1c,0xc0,0xf9,0x1c,0xc0,0xf9,0x1c,0xc0,0xf9,
 0x1c,0xc0,0xf9,0xfc,0xff,0xf9,0xfc,0xff,0xf9,0xfc,0xff,0xf9,
 0x00,0x00,0xf8};
