#define image_width  19
#define image_height 17
static unsigned char image_bits[] = {
 0x00,0x02,0xf8,0x00,0x07,0xf8,0x80,0x0f,0xf8,0x80,0x0f,0xf8,
 0xc0,0x1f,0xf8,0xc0,0x1d,0xf8,0xe0,0x38,0xf8,0xf0,0x78,0xf8,
 0x70,0x70,0xf8,0x78,0xf0,0xf8,0x38,0xe0,0xf8,0x3c,0xe0,0xf9,
 0x1e,0xc0,0xfb,0xfe,0xff,0xfb,0xff,0xff,0xff,0xff,0xff,0xff,
 0x00,0x00,0xf8};
